# xmcd
#
# Track frame offsets:
#	150
#	13841
#	22929
#	37179
#	50489
#	71061
#	85819
#	97266
#	116509
#	129987
#
# Disc length: 1897 seconds
#
# Revision: 1
# Processed by: cddbd v1.5.2PL0 Copyright (c) Steve Scherf et al.
# Submitted via: audiograbber 1.80
#
DISCID=8507670a
DTITLE=Mark Collie - Rose Covered Garden
DYEAR=1900
DGENRE=
TTITLE0=80 Miles Ffrom Memphis
TTITLE1=Shackles and Chains
TTITLE2=Song for John
TTITLE3=Somethings You Can't Take Back
TTITLE4=Rose Covered Garden
TTITLE5=Wildflowers
TTITLE6=Better Man Than Me
TTITLE7=Forget About Us
TTITLE8=Walk The Floor, Kill The Lights, Slam The Door
TTITLE9=On The Wings Of Your Love
EXTD=
EXTT0=
EXTT1=
EXTT2=
EXTT3=
EXTT4=
EXTT5=
EXTT6=
EXTT7=
EXTT8=
EXTT9=
PLAYORDER=
